<svg xmlns="http://www.w3.org/2000/svg" height="2048" viewBox="0 0 2048 2048.0019" overflow="inherit"><g transform="matrix(1.0084 0 0 1.0084 137.2 0)"><switch transform="translate(-144.56-8.504)"><g><path d="m1024 8.504l879.44 507.75v1015.5l-879.44 507.75-879.44-507.75v-1015.5z" fill="#09aeed"/><path d="m1024 105.05l-568.57 328.27 670.37 531.91 70.99 877.96 623.04-359.72v-918.95z" fill="#75d2f5"/></g></switch><g transform="translate(-25 25)" fill="#fff"><circle cx="900" cy="1680.99" r="75"/><circle cx="900" cy="980.99" r="75"/><circle cx="1200" cy="1155.99" r="75"/><circle cx="600" cy="1155.99" r="75"/><circle cx="1200" cy="805.99" r="75"/><circle cx="600" cy="805.99" r="75"/><circle cx="1525" cy="630.99" r="75"/><circle cx="1525" cy="1330.99" r="75"/><circle cx="275" cy="1330.99" r="75"/><circle cx="275" cy="630.99" r="75"/><circle cx="900" cy="280.99" r="75"/></g><g fill="#fff"><path d="m1454.38 629.86h90v750h-90z"/><path d="m129.52 887.66h90v750h-90z" transform="matrix(.49484-.86898.86898.49484 0 0)"/><path d="m1873.63-641.57h90v750h-90z" transform="matrix(.49283.87013-.87013.49283 0 0)"/><path d="m868.41-194.31h90v650h-90z" transform="matrix(.86467.50233-.50233.86467 0 0)"/><path d="m-873.08 567.15h90v600h-90z" transform="matrix(0-1 1 0 0 0)"/><path d="m1259.88-652.06h90v400h-90z" transform="matrix(.48232.876-.876.48232 0 0)"/><path d="m423.23 870.56h90v400h-90z" transform="matrix(-.48232.876.876.48232 0 0)"/></g></g></svg>